<svg width="16" height="14" viewBox="0 0 16 14" fill="none" xmlns="http://www.w3.org/2000/svg">
<path d="M15.3172 7.44217L9.69219 13.0672C9.57491 13.1844 9.41585 13.2503 9.25 13.2503C9.08415 13.2503 8.92509 13.1844 8.80781 13.0672C8.69054 12.9499 8.62465 12.7908 8.62465 12.625C8.62465 12.4591 8.69054 12.3001 8.80781 12.1828L13.3664 7.62498H1.125C0.95924 7.62498 0.800269 7.55913 0.683058 7.44192C0.565848 7.32471 0.5 7.16574 0.5 6.99998C0.5 6.83422 0.565848 6.67525 0.683058 6.55804C0.800269 6.44083 0.95924 6.37498 1.125 6.37498H13.3664L8.80781 1.81717C8.69054 1.69989 8.62465 1.54083 8.62465 1.37498C8.62465 1.20913 8.69054 1.05007 8.80781 0.932794C8.92509 0.815518 9.08415 0.749634 9.25 0.749634C9.41585 0.749634 9.57491 0.815518 9.69219 0.932794L15.3172 6.55779C15.3753 6.61584 15.4214 6.68477 15.4529 6.76064C15.4843 6.83652 15.5005 6.91785 15.5005 6.99998C15.5005 7.08212 15.4843 7.16344 15.4529 7.23932C15.4214 7.31519 15.3753 7.38412 15.3172 7.44217Z" fill="white"/>
</svg>
