<svg width="12" height="14" viewBox="0 0 12 14" fill="none" xmlns="http://www.w3.org/2000/svg">
<path opacity="0.2" d="M8.54688 3.5V3.00007L3.96559 1.54688C3.66239 1.97016 3.49926 2.47835 3.5 3H3.45312V3.00007V3.5V3.54688H3.5H8.5H8.54688V3.5ZM8.0918 1.54688H10.5C10.6202 1.54688 10.7354 1.59461 10.8204 1.67959C10.9054 1.76457 10.9531 1.87982 10.9531 2V12.5C10.9531 12.6202 10.9054 12.7354 10.8204 12.8204C10.7354 12.9054 10.6202 12.9531 10.5 12.9531H1.5C1.37982 12.9531 1.26457 12.9054 1.17959 12.8204C1.09461 12.7354 1.04688 12.6202 1.04688 12.5V2C1.04688 1.87982 1.09461 1.76457 1.17959 1.67959C1.26457 1.59461 1.37982 1.54688 1.5 1.54688H3.9082H8.0918Z" fill="#94A3B8" stroke="#94A3B8" stroke-width="0.09375"/>
<path d="M8.5 8.49997C8.5 8.63258 8.44732 8.75976 8.35355 8.85352C8.25979 8.94729 8.13261 8.99997 8 8.99997H4C3.86739 8.99997 3.74021 8.94729 3.64645 8.85352C3.55268 8.75976 3.5 8.63258 3.5 8.49997C3.5 8.36736 3.55268 8.24018 3.64645 8.14642C3.74021 8.05265 3.86739 7.99997 4 7.99997H8C8.13261 7.99997 8.25979 8.05265 8.35355 8.14642C8.44732 8.24018 8.5 8.36736 8.5 8.49997ZM8 5.99997H4C3.86739 5.99997 3.74021 6.05265 3.64645 6.14642C3.55268 6.24019 3.5 6.36736 3.5 6.49997C3.5 6.63258 3.55268 6.75976 3.64645 6.85352C3.74021 6.94729 3.86739 6.99997 4 6.99997H8C8.13261 6.99997 8.25979 6.94729 8.35355 6.85352C8.44732 6.75976 8.5 6.63258 8.5 6.49997C8.5 6.36736 8.44732 6.24019 8.35355 6.14642C8.25979 6.05265 8.13261 5.99997 8 5.99997ZM11.5 1.99997V12.5C11.5 12.7652 11.3946 13.0195 11.2071 13.2071C11.0196 13.3946 10.7652 13.5 10.5 13.5H1.5C1.23478 13.5 0.98043 13.3946 0.792893 13.2071C0.605357 13.0195 0.5 12.7652 0.5 12.5V1.99997C0.5 1.73475 0.605357 1.4804 0.792893 1.29286C0.98043 1.10533 1.23478 0.999971 1.5 0.999971H3.76625C4.04719 0.685423 4.39139 0.433756 4.77633 0.261444C5.16127 0.0891324 5.57826 6.10352e-05 6 6.10352e-05C6.42174 6.10352e-05 6.83873 0.0891324 7.22367 0.261444C7.6086 0.433756 7.95281 0.685423 8.23375 0.999971H10.5C10.7652 0.999971 11.0196 1.10533 11.2071 1.29286C11.3946 1.4804 11.5 1.73475 11.5 1.99997ZM4 2.99997H8C8 2.46954 7.78929 1.96083 7.41421 1.58576C7.03914 1.21068 6.53043 0.999971 6 0.999971C5.46957 0.999971 4.96086 1.21068 4.58579 1.58576C4.21071 1.96083 4 2.46954 4 2.99997ZM10.5 1.99997H8.82812C8.94186 2.32111 8.99999 2.65929 9 2.99997V3.49997C9 3.63258 8.94732 3.75976 8.85355 3.85352C8.75979 3.94729 8.63261 3.99997 8.5 3.99997H3.5C3.36739 3.99997 3.24021 3.94729 3.14645 3.85352C3.05268 3.75976 3 3.63258 3 3.49997V2.99997C3.00001 2.65929 3.05814 2.32111 3.17188 1.99997H1.5V12.5H10.5V1.99997Z" fill="#94A3B8"/>
</svg>
