<svg width="300" height="106" viewBox="0 0 300 106" fill="none" xmlns="http://www.w3.org/2000/svg">
<path d="M98.3804 105.714C93.6367 105.714 90.0789 105.296 87.7071 104.459C85.405 103.552 83.7657 101.982 82.789 99.7504C81.8822 97.4486 81.4287 94.0307 81.4287 89.4969C81.4287 85.4513 81.917 82.2776 82.8937 79.9758C83.9401 77.6739 85.5794 76.0348 87.8117 75.0582C90.1138 74.012 93.253 73.4888 97.2293 73.4888H114.39V70.0361C114.39 67.8738 114.076 66.2695 113.449 65.2232C112.89 64.177 111.809 63.4446 110.205 63.0261C108.67 62.6075 106.333 62.3983 103.194 62.3983C98.8687 62.3983 92.9391 62.8168 85.405 63.6538V54.0281C90.9161 53.3305 97.3689 52.9818 104.763 52.9818C111.251 52.9818 116.239 53.4701 119.727 54.4466C123.285 55.4231 125.831 57.0971 127.366 59.4687C128.9 61.8403 129.668 65.293 129.668 69.8269V104.668H114.704V100.064C113.518 102.087 111.914 103.517 109.891 104.354C107.868 105.261 104.031 105.714 98.3804 105.714ZM104.345 96.1931C107.414 96.1931 109.612 96.0884 110.937 95.8792C111.914 95.7397 112.577 95.5304 112.925 95.2514C113.344 94.9724 113.693 94.519 113.972 93.8912C114.251 93.403 114.39 92.6706 114.39 91.6941V81.8591H103.926C101.554 81.8591 99.8802 82.0334 98.9036 82.3822C97.9269 82.6612 97.2642 83.289 96.9154 84.2655C96.5666 85.1723 96.3922 86.8114 96.3922 89.183C96.3922 91.4848 96.5666 93.0891 96.9154 93.9959C97.2642 94.9026 97.9269 95.4955 98.9036 95.7745C99.95 96.0536 101.764 96.1931 104.345 96.1931Z" fill="#E8603D"/>
<path d="M156.294 105.714C150.852 105.714 144.19 105.191 136.307 104.145V93.9959C146.004 95.4607 152.736 96.1931 156.503 96.1931C159.712 96.1931 162.084 95.8792 163.618 95.2514C165.153 94.6236 165.921 93.4727 165.921 91.7987V88.6599C165.921 86.9161 165.432 85.6954 164.456 84.9979C163.479 84.2306 161.561 83.847 158.7 83.847H152.108C146.737 83.847 142.586 82.8007 139.656 80.7081C136.726 78.5458 135.261 75.407 135.261 71.2916V65.1186C135.261 60.7242 137.354 57.6203 141.539 55.8067C145.725 53.9234 152.038 52.9818 160.479 52.9818C163.828 52.9818 169.827 53.2957 178.477 53.9234V63.6538C167.595 62.8168 161.456 62.3983 160.061 62.3983C155.945 62.3983 153.259 62.6773 152.003 63.2353C150.887 63.8631 150.329 65.014 150.329 66.688V69.4083C150.329 70.3151 150.783 71.1173 151.689 71.8148C152.596 72.4426 153.922 72.7564 155.666 72.7564H162.363C174.78 72.7564 180.989 76.802 180.989 84.8933V91.2756C180.989 93.7169 180.535 95.8443 179.628 97.6578C178.721 99.4714 177.536 100.901 176.071 101.948C174.675 102.924 172.862 103.691 170.629 104.249C168.467 104.807 166.2 105.191 163.828 105.4C161.665 105.61 159.154 105.714 156.294 105.714Z" fill="#E8603D"/>
<path d="M186.575 31.4285H201.853V60.2011C202.829 55.3882 208.166 52.9818 217.863 52.9818C224.35 52.9818 228.885 54.1676 231.466 56.5391C234.117 58.8409 235.442 62.5029 235.442 67.525V104.668H220.165V69.3037C220.165 67.3507 219.956 65.9208 219.537 65.014C219.188 64.0375 218.456 63.3748 217.34 63.0261C216.223 62.6075 214.445 62.3983 212.003 62.3983C209.003 62.3983 206.806 62.5727 205.411 62.9214C204.015 63.2702 203.074 63.9328 202.585 64.9094C202.097 65.8161 201.853 67.2809 201.853 69.3037V104.668H186.575V31.4285Z" fill="#E8603D"/>
<path d="M243.471 35.7182H258.748V48.0643H243.471V35.7182ZM243.471 54.0281H258.748V104.668H243.471V54.0281Z" fill="#E8603D"/>
<path d="M266.829 54.0281H281.374V62.9214C281.374 61.3171 282.037 59.7477 283.362 58.2132C284.688 56.6786 286.362 55.4231 288.385 54.4466C290.478 53.4701 292.536 52.9818 294.559 52.9818H300V65.6417H294.768C290.443 65.6417 287.234 66.3044 285.141 67.6297C283.118 68.955 282.107 71.1521 282.107 74.2212V104.668H266.829V54.0281Z" fill="#E8603D"/>
<path d="M0 85.7144C0 96.7601 8.9543 105.714 20 105.714H28.5714V20.0001C28.5714 8.95436 19.6171 6.86646e-05 8.57143 6.86646e-05H0V85.7144Z" fill="#E8603D"/>
<path d="M34.2856 59.8223C28.7628 69.3882 32.0403 81.62 41.6062 87.1428L73.7728 105.714L75.2014 103.24C80.7242 93.674 77.4467 81.4422 67.8809 75.9194L35.7142 57.348L34.2856 59.8223Z" fill="#E8603D"/>
<path d="M34.2856 77.4167C28.7628 67.8509 32.0403 55.619 41.6062 50.0962L73.7728 31.5248L75.2014 33.9991C80.7242 43.565 77.4467 55.7968 67.8809 61.3196L35.7142 79.8911L34.2856 77.4167Z" fill="#B03312"/>
<path d="M0 8.57153C0 19.6172 8.9543 28.5715 20 28.5715H28.5714V20.0001C28.5714 8.95441 19.6171 0.000104904 8.57143 0.000104904H0V8.57153Z" fill="#B03312"/>
</svg>
